<svg version="1.2" xmlns="http://www.w3.org/2000/svg" viewBox="0 0 280 67" width="280" height="67">
  <title>lenovo-svg</title>
  <style>
    .s0 { fill: #8c98a4 }
  </style>
  <g id="Layer">
    <path id="Layer" fill-rule="evenodd" class="s0"
          d="m248.8 22.6q0 0 0 0q0 0 0 0zm3-1.8l1.6-17.5c0-1.7-2-3.1-4.6-3.1c-2.5 0-4.5 1.4-4.5 3.1l1.5 17.5c0.2 1 1.4 1.8 3 1.8c1.6 0 2.9-0.8 3-1.8zm-12.4 7.3c0.8-1.4 0.7-2.9-0.1-3.6l-14.4-10c-1.5-0.9-3.7 0.1-5 2.3c-1.3 2.2-1 4.7 0.5 5.6l15.8 7.4c1 0.3 2.4-0.4 3.2-1.7zm18.9 0c0.7 1.3 2.1 2 3.1 1.7l15.9-7.4c1.5-0.9 1.7-3.4 0.4-5.6c-1.3-2.2-3.5-3.2-5-2.3l-14.3 10c-0.9 0.7-0.9 2.2-0.1 3.6zm-9.5 16.3q0 0 0 0q0 0 0 0zm0 0c-1.5 0-2.8 0.9-3 1.9l-1.5 17.5c0 1.7 2 3.1 4.5 3.1c2.6 0 4.6-1.4 4.6-3.1l-1.6-17.5c-0.1-1-1.4-1.9-3-1.9zm9.5-5.4q0 0 0 0q0 0 0 0zm0 0q0 0 0 0c-0.8 1.3-0.7 2.9 0.1 3.5l14.3 10.1c1.5 0.9 3.8-0.2 5-2.4c1.3-2.2 1.1-4.6-0.4-5.5l-15.9-7.4c-1-0.4-2.3 0.3-3.1 1.7zm-18.9 0q0 0 0 0q0 0 0 0zm0 0q0 0 0 0c-0.8-1.4-2.1-2.1-3.1-1.7l-15.9 7.4c-1.5 0.9-1.7 3.3-0.5 5.5c1.3 2.2 3.5 3.3 5 2.4l14.4-10.1c0.8-0.6 0.9-2.2 0.1-3.5z"/>
    <path id="Layer" fill-rule="evenodd" class="s0"
          d="m166.1 45.9c0 2.7 0.1 4.9 0.5 7c-6.6 1.9-7.8-3.1-7.8-3.1h-0.2c-1.8 2.3-4.9 3.8-8.5 3.8c-5.9 0-9.3-4.3-9.3-8.8c0-7.4 6.7-11.1 17.2-11.1v-0.4c0-1.8-0.8-4.5-5.6-4.5c-2.9 0-6 1-7.9 2.2l-1.6-5.3c2.1-1.2 6-2.6 10.9-2.6c9.5 0 12.3 5.8 12.3 12.4c0 0 0 10.4 0 10.4zm-7.8-7c-5 0-9.4 1.1-9.4 5.1c0 2.6 1.7 3.8 3.9 3.8c2.6 0 4.7-1.7 5.3-3.7c0.1-0.5 0.2-1.1 0.2-1.6c0 0 0-3.6 0-3.6zm-147.4-24.7c0.8 4.1 3.1 16 3.1 16c0.9 4.9 1.8 10 2.5 14.1h0.1c0.7-4.4 1.7-8.4 2.8-13.5l3.9-16.6h8.6l3.7 17c0.9 4.8 1.7 8.4 2.3 12.9h0.1c0.6-4.5 1.5-8.3 2.4-13.2l3.5-16.7h8.3l-10.2 38.7c-6.6 1.4-9.1-1.2-10-5.4c-0.9-4.1-2.6-12.1-2.6-12.1c-0.9-4.3-1.6-7.4-2.1-11.8h-0.1c-0.7 4.4-1.4 7.5-2.5 11.8l-4.3 17.5c-6.7 1.3-9-0.6-10.3-6c-1.1-4.5-7.9-32.7-7.9-32.7zm64.8 31.7c0 2.7 0.1 4.9 0.4 7c-6.6 1.9-7.8-3.1-7.8-3.1h-0.2c-1.8 2.3-4.8 3.8-8.5 3.8c-5.8 0-9.2-4.3-9.2-8.8c0-7.4 6.6-11.1 17.1-11.1v-0.4c0-1.8-0.7-4.5-5.6-4.5c-2.9 0-6 1-7.9 2.2l-1.6-5.3c2.2-1.2 6-2.6 10.9-2.6c9.5 0 12.4 5.8 12.4 12.4zm-7.9-7c-5 0-9.4 1.1-9.4 5.1c0 2.6 1.7 3.9 3.9 3.9c2.6 0 4.7-1.7 5.3-3.8c0.2-0.5 0.2-1 0.2-1.5c0 0 0-3.7 0-3.7zm21 14.1h-7.9v-38.8h7.9zm110.6-38.7v9.1h6.9v7.4h-6.9v11c0 3.5 0.9 5.2 3.6 5.2c1.3 0 2.2-0.1 3-0.3l0.1 6.1c-1.1 0.4-3.4 0.9-5.7 0.9c-2.7 0-5-1-6.4-2.5c-1.6-1.6-2.3-4.4-2.3-8.3v-28.6zm-21 9.6v5.5h0.3c1.4-4.2 4.8-6.1 7.9-6.1c0.7 0 1.1 0 1.8 0.1v7.7c-0.8-0.2-1.4-0.3-2.4-0.3c-3.4 0-5.8 2-6.4 5.2q-0.2 0.9-0.2 2.1v14.9h-8.1v-29.1zm-76.7 0v4h0.1c1.4-2.2 3.6-4.6 8.5-4.6c3.8 0 6.8 2 8 5.2h0.1q1.6-2.4 3.7-3.7c1.7-1 3.5-1.5 5.8-1.5c5.1 0 9.7 3.5 9.7 12.6v17.1h-7.9v-15.9c0-4.6-1.5-7.3-4.8-7.3c-2.3 0-4.1 1.6-4.7 3.6c-0.2 0.7-0.3 1.6-0.3 2.3v17.3h-7.9v-16.6c0-3.9-1.5-6.6-4.7-6.6c-2.6 0-4.2 2-4.8 3.8c-0.3 0.7-0.4 1.5-0.4 2.3v17.1h-7.9v-29.1c0 0 7.5 0 7.5 0z"/>
  </g>
</svg>
