<?xml version="1.0" encoding="iso-8859-1"?>
<!-- Generator: Adobe Illustrator 19.0.0, SVG Export Plug-In . SVG Version: 6.00 Build 0)  -->
<svg version="1.1" id="Layer_1" xmlns="http://www.w3.org/2000/svg" x="0px"
     y="0px"
     viewBox="0 0 512.001 512.001" style="enable-background:new 0 0 512.001 512.001;" xml:space="preserve">
<g>
	<path style="fill:#CEE8FA;" d="M256.001,98.244L256.001,98.244c10.954,0,21.583,1.388,31.721,3.996V69.405
		c0-17.519-14.202-31.721-31.721-31.721l0,0c-17.519,0-31.721,14.202-31.721,31.721v32.835
		C234.418,99.632,245.047,98.244,256.001,98.244z"/>
  <polygon style="fill:#CEE8FA;" points="417.207,405.793 94.793,405.793 129.088,315.654 382.914,315.654 	"/>
  <circle style="fill:#CEE8FA;" cx="255.997" cy="440.073" r="34.251"/>
</g>
  <g>
	<path style="fill:#2D527C;" d="M429.577,400.155l-33.984-89.325c-2.004-5.263-7.047-8.741-12.679-8.741H142.629v-76.91
		c0-54.637,38.851-100.367,90.377-111.022c0.111-0.023,0.221-0.046,0.332-0.068c1.715-0.35,3.444-0.658,5.187-0.929
		c0.296-0.045,0.591-0.081,0.887-0.125c1.308-0.193,2.625-0.355,3.946-0.503c0.555-0.061,1.108-0.129,1.663-0.182
		c1.399-0.134,2.805-0.239,4.219-0.321c0.75-0.043,1.502-0.076,2.253-0.104c0.952-0.038,1.909-0.058,2.868-0.073
		c1.092-0.015,2.183-0.015,3.275,0c0.959,0.014,1.915,0.035,2.868,0.073c0.751,0.03,1.503,0.061,2.253,0.104
		c1.413,0.084,2.82,0.187,4.219,0.321c0.555,0.053,1.108,0.121,1.663,0.182c1.321,0.148,2.638,0.311,3.946,0.503
		c0.296,0.043,0.591,0.08,0.887,0.125c1.742,0.271,3.471,0.579,5.187,0.929c0.111,0.022,0.221,0.046,0.332,0.068
		c51.526,10.657,90.377,56.385,90.377,111.022v37.166c0,7.492,6.074,13.565,13.565,13.565s13.565-6.073,13.565-13.565v-37.166
		c0-61.633-39.893-114.123-95.213-133.009V69.405c0-24.97-20.316-45.286-45.286-45.286s-45.286,20.316-45.286,45.286V92.17
		c-55.32,18.886-95.213,71.376-95.213,133.009v88.036l-33.386,87.754c-1.586,4.168-1.021,8.851,1.511,12.523
		c2.531,3.672,6.706,5.865,11.167,5.865h118.116c-3.025,6.27-4.722,13.296-4.722,20.711c0,26.365,21.45,47.814,47.814,47.814
		s47.814-21.449,47.814-47.813c0-7.415-1.697-14.441-4.722-20.711h118.116c0.011,0,0.022,0,0.027,0
		c7.492,0,13.565-6.073,13.565-13.565C430.799,403.781,430.362,401.873,429.577,400.155z M237.844,85.846V69.405
		c0-10.011,8.144-18.157,18.157-18.157c10.012,0,18.157,8.144,18.157,18.157v16.441c-0.065-0.008-0.129-0.014-0.194-0.022
		c-1.324-0.17-2.655-0.317-3.989-0.45c-0.41-0.041-0.822-0.073-1.232-0.11c-0.982-0.088-1.968-0.17-2.956-0.237
		c-0.469-0.033-0.939-0.062-1.408-0.09c-0.981-0.058-1.964-0.104-2.95-0.142c-0.419-0.016-0.838-0.035-1.259-0.047
		c-1.385-0.041-2.774-0.066-4.168-0.066c-1.394,0-2.784,0.026-4.168,0.066c-0.421,0.012-0.84,0.033-1.259,0.047
		c-0.986,0.038-1.97,0.084-2.95,0.142c-0.469,0.027-0.939,0.057-1.408,0.09c-0.989,0.068-1.974,0.149-2.956,0.237
		c-0.411,0.037-0.822,0.069-1.232,0.11c-1.335,0.133-2.665,0.281-3.989,0.45C237.973,85.832,237.908,85.838,237.844,85.846z
		 M256.001,460.753c-11.405,0-20.684-9.278-20.684-20.684c0-11.405,9.278-20.684,20.684-20.684s20.684,9.278,20.684,20.684
		C276.684,451.474,267.406,460.753,256.001,460.753z M114.467,392.228l23.972-63.01h235.123l23.972,63.01H114.467z"/>
    <path style="fill:#2D527C;" d="M429.565,307.849c-4.136,0-8.219-1.884-10.882-5.453c-4.48-6.005-3.246-14.504,2.759-18.984
		c8.747-6.527,13.763-16.518,13.763-27.411s-5.016-20.885-13.763-27.411c-6.005-4.48-7.24-12.979-2.759-18.984
		c4.48-6.004,12.98-7.241,18.984-2.759c15.446,11.526,24.669,29.901,24.669,49.154s-9.223,37.629-24.669,49.154
		C435.232,306.971,432.386,307.849,429.565,307.849z"/>
    <path style="fill:#2D527C;" d="M466.412,339.362c-3.814,0-7.603-1.598-10.286-4.715c-4.889-5.678-4.249-14.243,1.43-19.131
		c17.359-14.944,27.316-36.637,27.316-59.516s-9.957-44.57-27.316-59.516c-5.678-4.889-6.317-13.452-1.43-19.131
		c4.889-5.677,13.451-6.317,19.131-1.43c23.352,20.105,36.745,49.291,36.745,80.076s-13.393,59.972-36.745,80.076
		C472.696,338.282,469.545,339.362,466.412,339.362z"/>
    <path style="fill:#2D527C;" d="M82.435,307.849c-2.821,0-5.667-0.876-8.102-2.694c-15.446-11.526-24.669-29.901-24.669-49.154
		c0-19.253,9.223-37.629,24.669-49.154c6.004-4.48,14.502-3.245,18.984,2.759c4.48,6.005,3.246,14.504-2.759,18.984
		c-8.747,6.527-13.763,16.518-13.763,27.411c0,10.893,5.016,20.885,13.763,27.411c6.005,4.48,7.24,12.979,2.759,18.984
		C90.656,305.965,86.571,307.849,82.435,307.849z"/>
    <path style="fill:#2D527C;" d="M45.588,339.362c-3.135,0-6.282-1.08-8.844-3.284C13.393,315.973,0,286.785,0,256.001
		s13.393-59.972,36.745-80.076c5.678-4.889,14.244-4.246,19.131,1.43c4.889,5.678,4.249,14.243-1.43,19.131
		C37.086,211.43,27.13,233.123,27.13,256.001c0,22.879,9.957,44.57,27.316,59.516c5.678,4.889,6.317,13.452,1.43,19.131
		C53.192,337.762,49.401,339.362,45.588,339.362z"/>
</g>
  <g>
</g>
  <g>
</g>
  <g>
</g>
  <g>
</g>
  <g>
</g>
  <g>
</g>
  <g>
</g>
  <g>
</g>
  <g>
</g>
  <g>
</g>
  <g>
</g>
  <g>
</g>
  <g>
</g>
  <g>
</g>
  <g>
</g>
</svg>
