<svg xmlns="http://www.w3.org/2000/svg" width="70" height="70" fill="none"><path d="M.769.768C.325 1.212.054 1.801.007 2.428s.133 1.25.506 1.755l.256.294L14.888 18.6A34.95 34.95 0 0 0 1.046 38.726c-.158.671-.045 1.378.314 1.966s.935 1.013 1.604 1.18 1.377.065 1.971-.286 1.026-.92 1.203-1.587c1.816-7.238 6.289-13.528 12.53-17.619l6.335 6.335a14 14 0 0 0 .216 19.58 14 14 0 0 0 19.58.212l20.717 20.72c.468.47 1.097.745 1.76.769s1.311-.202 1.813-.635.822-1.04.895-1.7-.107-1.322-.502-1.854l-.256-.294-21.396-21.399.004-.007-24.325-24.311.007-.007-3.965-3.955L4.479.768C3.987.276 3.32 0 2.624 0S1.261.276.769.768h0zm34.23 11.48a34.99 34.99 0 0 0-10.112 1.488l4.33 4.326a29.76 29.76 0 0 1 34.647 21.952c.181.661.614 1.225 1.206 1.572s1.296.447 1.961.281 1.239-.586 1.599-1.169.477-1.285.326-1.954a35.01 35.01 0 0 0-33.957-26.495h0zm.682 12.285l13.304 13.3a14.01 14.01 0 0 0-13.304-13.3h0z" fill="#000"/></svg>