<svg xmlns="http://www.w3.org/2000/svg" width="70" height="40" fill="none"><path d="M34.994 12.186c3.819 0 7.482 1.465 10.183 4.073s4.218 6.145 4.218 9.834-1.517 7.226-4.218 9.834S38.813 40 34.994 40s-7.482-1.465-10.183-4.073-4.218-6.145-4.218-9.834 1.517-7.226 4.218-9.834 6.363-4.073 10.183-4.073h0zm0-12.186c16.607 0 30.947 10.952 34.925 26.298a2.53 2.53 0 0 1-.303 1.974c-.368.593-.965 1.021-1.659 1.189s-1.43.063-2.044-.292-1.058-.932-1.232-1.603c-1.664-6.387-5.489-12.055-10.869-16.104S41.807 5.216 34.987 5.218 21.542 7.42 16.165 11.472s-9.2 9.721-10.861 16.109c-.187.657-.632 1.217-1.241 1.561s-1.333.444-2.017.279S.772 28.84.402 28.26a2.53 2.53 0 0 1-.336-1.941C2.018 18.8 6.515 12.127 12.843 7.359S26.968 0 34.994 0h0z" fill="#000"/></svg>