<svg xmlns="http://www.w3.org/2000/svg" width="50" height="40" fill="none"><path d="M49.759 37.551L26.546.816C26.2.27 25.603 0 25 0s-1.205.27-1.546.816L.241 37.551C-.445 38.643.414 40 1.787 40h46.426c1.373 0 2.232-1.357 1.546-2.449zM23.214 15.102c0-.224.201-.408.446-.408h2.678c.245 0 .446.184.446.408v9.388c0 .225-.201.408-.446.408h-2.678c-.245 0-.446-.184-.446-.408v-9.388zM25 33.061c-.701-.013-1.368-.277-1.859-.735s-.765-1.073-.765-1.714.275-1.256.765-1.714 1.158-.722 1.859-.735c.701.013 1.368.277 1.859.735s.765 1.073.765 1.714-.275 1.256-.765 1.714-1.158.722-1.859.735h0z" fill="#fff"/></svg>