<svg xmlns="http://www.w3.org/2000/svg" width="50" height="40" fill="none"><path d="M46.665 33.438L26.353 5.313c-.303-.418-.825-.625-1.353-.625s-1.055.207-1.352.625L3.335 33.438c-.601.836.151 1.875 1.353 1.875h40.625c1.201 0 1.953-1.039 1.353-1.875zm-38.257-1.09L25 9.371l16.592 22.977H8.408h0z" fill="#fff" fill-opacity=".8"/><path d="M8.408 32.348h33.184L25 9.371 8.408 32.348zm18.936-4.223c-.013.491-.265.958-.703 1.301s-1.027.536-1.641.536-1.202-.192-1.641-.536-.691-.811-.703-1.301c.012-.491.265-.958.703-1.301s1.027-.536 1.641-.536 1.203.192 1.641.536.691.811.703 1.301h0zm-.781-11.875v7.188c0 .172-.176.313-.391.313h-2.344c-.215 0-.391-.141-.391-.312V16.25c0-.172.176-.312.391-.312h2.344c.215 0 .391.141.391.313z" fill="#000" fill-opacity=".1"/><path d="M22.656 28.125c0 .497.247.974.687 1.326S24.378 30 25 30s1.218-.198 1.657-.549.687-.829.687-1.326-.247-.974-.687-1.326-1.036-.549-1.657-.549-1.218.198-1.657.549-.686.829-.687 1.326h0zm.781-11.875v7.188c0 .172.176.313.391.313h2.344c.215 0 .391-.141.391-.312V16.25c0-.172-.176-.312-.391-.312h-2.344c-.215 0-.391.141-.391.313z" fill="#fff" fill-opacity=".8"/></svg>